# xmcd CD database file generated by Grip 3.2.0
# 
# Track frame offsets:
#       165
#       20142
#       37712
#       51722
#       85455
#       107622
#       132575
#       154860
# 
# Disc length: 2269 seconds
# 
# Revision: 3
# Processed by: cddbd v1.5.2PL0 Copyright (c) Steve Scherf et al.
# Submitted via: Grip 3.2.0
# 
DISCID=6b08db08
DTITLE=Gary Moore - Back On The Streets
DYEAR=1978
DGENRE=Blues
TTITLE0=Back On The Streets
TTITLE1=Don't Believe A Word
TTITLE2=Fanatical Fascists
TTITLE3=Flight Of The Snow Moose
TTITLE4=Hurricane
TTITLE5=Song For Donna
TTITLE6=What Would You Rather Bee Or A Wasp
TTITLE7=Parisienne Walkways
EXTD=
EXTT0=
EXTT1=
EXTT2=
EXTT3=
EXTT4=
EXTT5=
EXTT6=
EXTT7=
PLAYORDER=
